#!OML:ASF F:\VICON\USERDATA\INSTALL\rory3\rory3.ASF
:FULLY-SPECIFIED
:DEGREES
181
root 4.86743 17.9916 3.6827 -2.30541 -3.72383 -7.75077
lowerback 9.38073 1.57937 5.85051
upperback 0.579735 2.82964 2.34423
thorax -4.49658 1.30213 -1.2076
lowerneck -17.1675 -3.15429 -1.62047
upperneck 16.7221 -4.12152 1.07886
head 8.06391 -1.94899 0.135135
rclavicle 1.58158e-014 -2.22142e-014
rhumerus -22.0939 -11.114 -82.1576
rradius 28.4271
rwrist -0.275963
rhand -19.402 22.119
rfingers 7.12502
rthumb 6.91711 -7.74799
lclavicle 1.58158e-014 -2.22142e-014
lhumerus -37.1115 2.70959 82.6841
lradius 26.755
lwrist 6.37018
lhand -26.7438 19.7757
lfingers 7.12502
lthumb -0.17269 49.7554
rfemur 3.54703 7.84148 35.4755
rtibia 24.4766
rfoot -19.5008 -6.93705
rtoes 8.62621
lfemur -28.7493 -0.349057 -10.8356
ltibia 38.5956
lfoot -5.97268 4.59828
ltoes -3.72136
182
root 4.87052 17.9744 3.85034 -2.14851 -3.87732 -7.94438
lowerback 9.43724 1.67546 5.97272
upperback 0.574946 2.97626 2.37244
thorax -4.51983 1.37143 -1.26646
lowerneck -17.4506 -3.198 -1.63997
upperneck 16.7807 -4.1811 1.1208
head 8.13536 -1.97184 0.140097
rclavicle -2.35808e-014 -1.11319e-014
rhumerus -21.7655 -11.0225 -82.2218
rradius 28.8118
rwrist -0.537597
rhand -19.2189 22.2276
rfingers 7.12502
rthumb 7.09381 -7.63353
lclavicle -2.35808e-014 -1.11319e-014
lhumerus -37.1235 2.62536 82.8571
lradius 26.5245
lwrist 6.19262
lhand -26.943 20.0882
lfingers 7.12502
lthumb -0.364996 50.0677
rfemur 4.22897 7.97645 35.7383
rtibia 23.9782
rfoot -19.666 -7.289
rtoes 7.38146
lfemur -28.6959 -0.685906 -10.4023
ltibia 35.5907
lfoot -5.88358 4.76863
ltoes -3.68921
183
root 4.87258 17.9784 4.01879 -1.91678 -3.94999 -7.90936
lowerback 9.463 1.77006 5.90458
upperback 0.507761 3.09725 2.30162
thorax -4.59664 1.42862 -1.31968
lowerneck -17.5393 -3.30381 -1.64414
upperneck 16.662 -4.33054 1.16666
head 8.11436 -2.03815 0.137487
rclavicle 1.13338e-014 1.18277e-014
rhumerus -21.4788 -10.7632 -82.344
rradius 29.2342
rwrist -0.900637
rhand -19.0272 22.1728
rfingers 7.12502
rthumb 7.27894 -7.68196
lclavicle 1.13338e-014 1.18277e-014
lhumerus -37.1789 2.28475 83.0969
lradius 26.1836
lwrist 6.2501
lhand -27.4232 19.6898
lfingers 7.12502
lthumb -0.828874 49.668
rfemur 4.79369 8.1485 35.741
rtibia 23.5657
rfoot -19.8235 -7.48321
rtoes 6.74645
lfemur -28.5712 -1.35381 -10.1797
ltibia 32.4399
lfoot -5.6167 5.23205
ltoes -3.51448
184
root 4.88035 17.9653 4.19334 -1.68464 -4.01264 -7.90878
lowerback 9.4667 1.82237 5.86557
upperback 0.461652 3.16491 2.28927
thorax -4.64421 1.46061 -1.32042
lowerneck -17.8395 -3.29209 -1.76994
upperneck 16.7061 -4.30048 1.28408
head 8.18704 -2.01733 0.195407
rclavicle -5.18704e-015 2.09718e-014
rhumerus -21.1364 -10.4445 -82.4039
rradius 29.5931
rwrist -1.30112
rhand -18.6592 22.3837
rfingers 7.12502
rthumb 7.63412 -7.45848
lclavicle -5.18704e-015 2.09718e-014
lhumerus -37.3273 2.27622 83.2557
lradius 26.1741
lwrist 6.01505
lhand -26.9065 20.5781
lfingers 7.12502
lthumb -0.329746 50.5576
rfemur 5.4094 8.06191 35.6995
rtibia 23.1076
rfoot -19.9126 -7.42619
rtoes 6.0713
lfemur -28.2255 -2.23067 -9.84197
ltibia 29.1658
lfoot -5.20366 5.82279
ltoes -3.57445
185
root 4.89058 17.9433 4.37355 -1.59279 -4.21866 -7.8226
lowerback 9.44294 1.92741 5.79523
upperback 0.538954 3.28626 2.20419
thorax -4.54063 1.52533 -1.38223
lowerneck -18.192 -3.24519 -1.61266
upperneck 16.7662 -4.25669 1.2019
head 8.26263 -1.99203 0.141834
rclavicle -1.38839e-014 -2.18663e-015
rhumerus -20.7171 -10.4003 -82.4964
rradius 29.8084
rwrist -1.31005
rhand -18.45 22.8623
rfingers 7.12502
rthumb 7.83601 -6.97251
lclavicle -1.38839e-014 -2.18663e-015
lhumerus -37.3447 2.44412 83.2106
lradius 26.5061
lwrist 4.80411
lhand -25.1762 24.9026
lfingers 7.12502
lthumb 1.34136 54.8782
rfemur 6.22078 8.11943 35.5876
rtibia 22.6171
rfoot -19.9076 -7.41721
rtoes 5.222
lfemur -27.6226 -3.25615 -9.50189
ltibia 25.8957
lfoot -4.7412 6.64989
ltoes -3.4662
186
root 4.90465 17.9261 4.55487 -1.51512 -4.25129 -7.79447
lowerback 9.44342 1.98921 5.89397
upperback 0.545604 3.37074 2.04866
thorax -4.51328 1.56444 -1.60901
lowerneck -18.3423 -3.31395 -1.33625
upperneck 16.6247 -4.40264 1.11142
head 8.23442 -2.05251 0.0475875
rclavicle 3.78747e-014 7.05686e-015
rhumerus -20.3895 -10.7266 -82.6608
rradius 29.8233
rwrist -0.893492
rhand -18.6154 23.5602
rfingers 7.12502
rthumb 7.67639 -6.28043
lclavicle 3.78747e-014 7.05686e-015
lhumerus -37.4628 1.976 83.4508
lradius 26.1225
lwrist 6.10326
lhand -27.3769 18.8094
lfingers 7.12502
lthumb -0.784088 48.7877
rfemur 6.99912 7.99419 35.5125
rtibia 22.1798
rfoot -20.1017 -7.38254
rtoes 4.93529
lfemur -27.1135 -4.59416 -9.07941
ltibia 22.916
lfoot -4.1934 7.53792
ltoes -5.1677
